<svg height="512pt" viewBox="0 -17 512.001 512" width="512pt" xmlns="http://www.w3.org/2000/svg" fill="#006aff"><path d="M450.316 48.879c-5.52 0-10 4.48-10 10v76.652H130.328c-5.52 0-10 4.477-10 10v287.656a10 10 0 0 0 10 10h29.414c5.524 0 10-4.476 10-10s-4.476-10-10-10h-19.414V155.531h299.988V329.81c0 5.523 4.48 10 10 10 22.985 0 41.684 18.703 41.684 41.691s-18.7 41.684-41.684 41.684H250.457c-5.523 0-10 4.48-10 10 0 5.523 4.477 10 10 10h199.86c34.011 0 61.683-27.668 61.683-61.684V110.574c0-34.02-27.672-61.695-61.684-61.695zm10 96.652V70.094C478.488 74.586 492 91.03 492 110.574v225.492c-8.781-8.074-19.906-13.52-31.684-15.449zm0 0"/><path d="M10 100.926h386.73c5.52 0 10-4.477 10-10V10c0-5.523-4.48-10-10-10H10C4.477 0 0 4.477 0 10v80.926c0 5.523 4.477 10 10 10zM20 20h46.57v16.023c0 5.524 4.477 10 10 10 5.524 0 10-4.476 10-10V20h42.422v16.023c0 5.524 4.477 10 10 10 5.524 0 10-4.476 10-10V20h42.422v16.023c0 5.524 4.48 10 10 10 5.524 0 10-4.476 10-10V20h42.426v16.023c0 5.524 4.476 10 10 10 5.52 0 10-4.476 10-10V20h42.422v16.023c0 5.524 4.476 10 10 10 5.523 0 10-4.476 10-10V20h50.468v60.926H20zm220.96 360.563h150.75c5.524 0 10-4.477 10-10V217.09c0-5.524-4.476-10-10-10H290.396c-5.52 0-10 4.476-10 10v52.781h-41.52c-5.523 0-10 4.477-10 10 0 5.524 4.477 10 10 10h41.52v38.602c0 5.523 4.48 10 10 10h53.742c5.523 0 10-4.477 10-10 0-5.52-4.477-10-10-10h-43.742V227.09h81.316v133.472H249.16c-5.7-21.984-19.735-33.32-31.173-39.05-6.312-3.164-12.367-4.93-17.148-5.914V227.09h39.848c5.523 0 10-4.477 10-10 0-5.52-4.477-10-10-10H190.84c-5.524 0-10 4.48-10 10v153.472c0 5.524 4.476 10 10 10h50.09zm-40.116-44.364a48.697 48.697 0 0 1 8.183 3.192c9.118 4.57 15.524 11.675 19.16 21.171h-27.343zM94.594 369.55V158.622c0-20.48-16.66-37.137-37.137-37.137h-20.32C16.66 121.484 0 138.144 0 158.621v210.93c0 1.199.215 2.426.64 3.55l14.844 39.524c.004.004.004.008.004.012l3.867 10.285 18.582 49.465a10 10 0 0 0 9.36 6.48h.004a9.993 9.993 0 0 0 9.36-6.484l8.66-23.059 28.636-76.222c.422-1.125.637-2.352.637-3.551zM63.66 396.88a74 74 0 0 0-16.36-1.82 73.92 73.92 0 0 0-16.362 1.824l-6.497-17.297h45.715zm-16.363 43.55l-7.387-19.652-1.847-4.93a54.696 54.696 0 0 1 18.468-.003l-7.918 21.082zM20 359.587V180.574h17.297v179.012zm37.297 0V180.574h17.297v179.012zM20 158.62c0-9.45 7.688-17.137 17.137-17.137h20.32c9.45 0 17.137 7.688 17.137 17.137v1.953H20zm195.16 270.743c-1.586-3.87-5.597-6.386-9.77-6.16-4.163.227-7.816 3.098-9.03 7.082-1.2 3.942.214 8.32 3.48 10.832 3.347 2.582 8.117 2.738 11.629.387 3.914-2.617 5.504-7.785 3.691-12.14zm0 0"/></svg>