<svg height="682pt" viewBox="-21 -21 682 682.665" width="682pt" xmlns="http://www.w3.org/2000/svg" fill="#006aff"><path d="M155.637 0C70 0 .332 69.668.332 155.3c0 85.637 69.668 155.31 155.305 155.31S310.94 240.936 310.94 155.3C310.941 69.669 241.273 0 155.637 0zm0 285.395c-71.73 0-130.09-58.36-130.09-130.094 0-71.73 58.36-130.086 130.09-130.086S285.727 83.57 285.727 155.3c0 71.734-58.36 130.094-130.09 130.094zm202.086-62.547c6.402-2.73 9.382-10.137 6.648-16.543C357.488 190.172 354 173.008 354 155.3c0-71.73 58.352-130.086 130.086-130.086 71.734 0 130.094 58.355 130.094 130.086 0 71.734-58.36 130.094-130.094 130.094-18.621 0-36.602-3.848-53.426-11.442-6.348-2.86-13.816-.039-16.676 6.309-2.867 6.347-.039 13.816 6.309 16.676 20.105 9.074 41.57 13.671 63.793 13.671 85.637 0 155.305-69.671 155.305-155.308C639.39 69.668 569.723 0 484.086 0c-85.633 0-155.3 69.668-155.3 155.3 0 21.13 4.167 41.618 12.394 60.9 2.73 6.402 10.136 9.382 16.543 6.648zm126.363 106.547c-85.633 0-155.3 69.667-155.3 155.3 0 85.637 69.667 155.305 155.3 155.305 85.637 0 155.309-69.668 155.309-155.305 0-85.632-69.672-155.3-155.31-155.3zm0 285.39C412.352 614.785 354 556.43 354 484.695c0-71.73 58.352-130.09 130.086-130.09 71.734 0 130.094 58.36 130.094 130.09 0 71.735-58.36 130.09-130.094 130.09zM200.531 469.969a55.042 55.042 0 0 0 9.192-30.5v-32.242c0-30.543-24.848-55.387-55.391-55.387-30.539 0-55.387 24.844-55.387 55.387v32.242c0 11.222 3.371 21.672 9.133 30.41-21.523 1.84-40.957 13.418-52.805 31.793a128.239 128.239 0 0 0-20.476 69.586v46.156c0 6.965 5.644 12.61 12.605 12.61H260.2c6.965 0 12.61-5.645 12.61-12.61v-46.156c0-24.73-7.086-48.793-20.48-69.586-11.665-18.094-30.673-29.586-51.798-31.703zm-76.37-62.742c0-16.637 13.534-30.176 30.171-30.176 16.64 0 30.176 13.539 30.176 30.176v32.242c0 16.054-12.602 29.21-28.438 30.117h-3.476c-15.832-.906-28.434-14.063-28.434-30.117zm123.433 197.586h-23.242v-51.137c0-6.965-5.641-12.61-12.602-12.61-6.965 0-12.61 5.645-12.61 12.61v51.136h-89.613v-51.136c0-6.965-5.644-12.61-12.609-12.61-6.961 0-12.606 5.645-12.606 12.61v51.136h-24.3v-33.554a102.99 102.99 0 0 1 16.457-55.922c8.289-12.863 22.363-20.535 37.664-20.535h27.59v26.887c0 6.964 5.644 12.609 12.609 12.609 6.961 0 12.606-5.645 12.606-12.61v-26.886h26.535c15.293 0 29.375 7.672 37.66 20.535a103.033 103.033 0 0 1 16.46 55.922zm0 0"/><path d="M221.293 105.645h-17.93V81.78c0-15.844-12.89-28.738-28.738-28.738h-1.559a28.586 28.586 0 0 0-16.132 4.969 28.586 28.586 0 0 0-16.133-4.969h-1.563c-15.843 0-28.738 12.895-28.738 28.738v23.864H89.98c-6.96 0-12.605 5.644-12.605 12.605v43.008c0 5.597 3.645 10.332 8.691 11.984v51.524c0 6.96 5.645 12.605 12.606 12.605h114.3c6.965 0 12.61-5.644 12.61-12.605v-51.66c4.848-1.758 8.32-6.387 8.32-11.848V118.25c0-6.96-5.644-12.605-12.609-12.605zm-48.227-27.387h1.559a3.53 3.53 0 0 1 3.523 3.523v23.864h-8.613V81.78a3.53 3.53 0 0 1 3.531-3.523zm-37.351 3.523a3.53 3.53 0 0 1 3.523-3.523h1.559a3.53 3.53 0 0 1 3.531 3.523v23.864h-8.621V81.78zM102.59 130.86h106.1v17.793h-106.1zm97.777 81.297h-89.086v-38.289h89.086zm313.25-130.098c-6.426-2.676-13.808.359-16.488 6.785l-55.27 132.414c-2.68 6.426.352 13.808 6.778 16.492 1.586.664 3.234.977 4.855.977 4.93 0 9.617-2.918 11.633-7.754l55.27-132.422c2.68-6.422-.356-13.805-6.778-16.492zm-59.336 73.468c0-22.308-18.148-40.464-40.457-40.464-22.316 0-40.465 18.156-40.465 40.464 0 22.313 18.149 40.465 40.465 40.465 22.309 0 40.457-18.152 40.457-40.465zm-55.71 0c0-8.41 6.843-15.25 15.253-15.25 8.406 0 15.246 6.84 15.246 15.25 0 8.407-6.84 15.254-15.246 15.254-8.41 0-15.254-6.847-15.254-15.254zm155.784 40.465c22.31 0 40.465-18.152 40.465-40.465 0-22.316-18.152-40.464-40.465-40.464-22.316 0-40.464 18.148-40.464 40.464 0 22.313 18.148 40.465 40.464 40.465zm0-55.715c8.407 0 15.25 6.84 15.25 15.25 0 8.407-6.843 15.254-15.25 15.254-8.41 0-15.25-6.847-15.25-15.254 0-8.41 6.84-15.25 15.25-15.25zm-10.765 369.34c-13.824 0-25.684 8.547-30.586 20.63h-21.707c-4.906-12.083-16.762-20.63-30.586-20.63-8.715 0-16.645 3.403-22.547 8.942v-13.473h103.691a12.61 12.61 0 0 0 12.32-9.93l12.645-58.199a12.632 12.632 0 0 0-2.504-10.59 12.604 12.604 0 0 0-9.816-4.691H438.164V402.43c0-6.961-5.644-12.606-12.61-12.606H414.91c-6.96 0-12.601 5.645-12.601 12.606 0 6.297 4.609 11.515 10.64 12.457v18.832a9.043 9.043 0 0 0-.023.562l.023 58.203v50.371c0 6.961 5.645 12.606 12.606 12.606h4.761c5.016 11.832 16.754 20.152 30.395 20.152 13.644 0 25.379-8.32 30.398-20.152h22.078c5.02 11.832 16.754 20.152 30.395 20.152 18.2 0 33-14.8 33-32.996 0-18.195-14.8-33-32.992-33zm-4.727-62.734l-7.168 32.988h-93.53v-32.988zm-78.152 103.52c-4.29 0-7.785-3.489-7.785-7.786 0-4.293 3.496-7.785 7.785-7.785 4.293 0 7.789 3.492 7.789 7.785 0 4.297-3.496 7.785-7.79 7.785zm82.879 0c-4.293 0-7.79-3.489-7.79-7.786 0-4.293 3.497-7.785 7.79-7.785 4.289 0 7.781 3.492 7.781 7.785 0 4.297-3.492 7.785-7.781 7.785zM152.027 562.11l-.644.148c-6.778 1.594-10.98 8.379-9.39 15.156 1.366 5.813 6.542 9.727 12.26 9.727.958 0 1.93-.106 2.895-.336l.641-.153c6.777-1.59 10.98-8.379 9.39-15.156-1.59-6.777-8.378-10.98-15.152-9.387zm226.942-319.903l-.64.152c-6.778 1.59-10.981 8.38-9.388 15.157 1.36 5.804 6.543 9.726 12.258 9.726.957 0 1.926-.113 2.899-.344l.636-.152c6.778-1.59 10.985-8.371 9.391-15.148-1.59-6.778-8.383-10.985-15.156-9.391zm0 0"/></svg>