<svg xmlns="http://www.w3.org/2000/svg" fill="#006aff" width="512" height="512"><path d="M207.866 184.572a9.99 9.99 0 0 1-3.96-.818l-12.576-5.426c-5.071-2.188-7.408-8.072-5.221-13.143 2.188-5.071 8.072-7.412 13.143-5.221l7.108 3.066 9.427-7.421c4.34-3.417 10.627-2.668 14.043 1.672 3.416 4.34 2.667 10.627-1.672 14.043l-14.106 11.105a9.99 9.99 0 0 1-6.186 2.143zm-107.276 0a9.992 9.992 0 0 1-6.187-2.143l-14.105-11.105c-4.339-3.416-5.088-9.703-1.672-14.043 3.416-4.339 9.702-5.089 14.043-1.672l9.427 7.421 7.108-3.066c5.073-2.19 10.956.15 13.144 5.221 2.188 5.07-.15 10.955-5.221 13.143l-12.577 5.426a9.994 9.994 0 0 1-3.96.818zm65.144 56.667h-23.012c-5.523 0-10-4.478-10-10 0-5.523 4.477-10 10-10h23.012c5.523 0 10 4.477 10 10s-4.477 10-10 10zM208.63 20c-2.63 0-5.21-1.07-7.07-2.931A10.072 10.072 0 0 1 198.63 10c0-.65.07-1.311.2-1.95.13-.64.32-1.269.57-1.88.25-.601.56-1.18.92-1.72.36-.551.78-1.061 1.24-1.521 2.32-2.32 5.78-3.39 9.03-2.74.64.13 1.26.33 1.87.58.6.25 1.18.55 1.72.92.55.36 1.06.78 1.52 1.24.46.46.88.97 1.25 1.521.36.54.67 1.119.92 1.72.25.61.441 1.24.57 1.88.13.64.19 1.3.19 1.95 0 2.63-1.07 5.21-2.93 7.069-.46.461-.97.881-1.52 1.24-.54.37-1.12.67-1.72.92-.61.25-1.23.45-1.87.58-.65.131-1.3.191-1.96.191z"/><path d="M490.639 305.128h-55.478v-22.05c0-14.627-11.901-26.527-26.529-26.527h-64.133c-14.628 0-26.528 11.9-26.528 26.527v22.05l-131.092-.002v-11.238c18.421-4.648 31.665-10.898 39.828-15.56 26.857-15.336 41.085-37.094 41.156-62.928l.621-16.682c11.784-2.813 19.566-13.554 19.566-28.024 0-13.644-6.917-23.971-17.584-27.465l.196-6.995a9.986 9.986 0 0 0 4.05-8.037V61.888c9.733-14.941 15.393-32.766 15.393-51.888 0-5.523-4.478-10-10-10h-31.272c-5.523 0-10 4.477-10 10s4.477 10 10 10h20.611c-4.906 36.827-36.525 65.329-74.677 65.329h-45.296c-5.523 0-10 4.478-10 10s4.477 10 10 10h45.296c6.044 0 11.958-.566 17.692-1.646v.48c0 18.767 15.268 34.034 34.036 34.034h4.104l-.378 13.465a10 10 0 0 0 9.996 10.281h1.936c5.131 0 5.897 5.482 5.897 8.751 0 3.269-.767 8.751-5.897 8.751h-3.331a10 10 0 0 0-9.993 9.628l-.959 25.763c-.004.124-.007.248-.007.372 0 40.87-50.396 56.085-72.063 60.73-.557.12-.971.21-1.227.271a9.999 9.999 0 0 0-7.694 9.73v19.188h-25.302V285.94a9.998 9.998 0 0 0-7.695-9.73c-.244-.059-.632-.143-1.151-.256-21.69-4.69-72.137-20.001-72.137-60.745 0-.124-.002-.248-.007-.372l-.958-25.763a10 10 0 0 0-9.993-9.628H45.67c-5.131 0-5.897-5.482-5.897-8.751 0-3.269.766-8.751 5.897-8.751h2.57a10.002 10.002 0 0 0 9.996-10.296l-.398-13.45h4.123c18.768 0 34.037-15.268 34.037-34.034V95.33c0-5.522-4.477-10-10-10s-10 4.478-10 10v8.834c0 7.738-6.297 14.034-14.037 14.034h-8.179l.197-54.205C57.776 31.568 86.977 20 113.14 20h52.594c5.523 0 10-4.477 10-10s-4.477-10-10-10H113.14C69.193 0 38.144 24.468 34.038 62.335a10.06 10.06 0 0 0-.058 1.042l-.235 64.784a10.003 10.003 0 0 0 4.026 8.056l.202 6.82c-11.016 3.294-18.2 13.753-18.2 27.657 0 14.731 8.065 25.597 20.207 28.169l.616 16.537c.071 25.763 14.334 47.506 41.259 62.885 8.166 4.664 21.393 10.919 39.724 15.587v11.254H49.934c-21.269 0-38.572 17.304-38.572 38.572v109.688c0 5.522 4.477 10 10 10h231.786v14.066c0 19.05 15.499 34.548 34.551 34.548h166.624c19.052 0 34.551-15.498 34.551-34.548v-72.806c7.224-6.572 11.766-16.043 11.766-26.555v-62.963c-.001-5.523-4.479-10-10.001-10zM232.46 104.163v-6.602a95.496 95.496 0 0 0 22.253-13.486v34.122h-8.217c-7.74 0-14.036-6.296-14.036-14.034zm105.511 178.915c0-3.6 2.929-6.527 6.528-6.527h64.133a6.535 6.535 0 0 1 6.529 6.527v32.05c0 5.522 4.478 10 10 10h55.478v52.963c0 8.769-7.135 15.902-15.904 15.902h-64.478v-4.405c0-5.522-4.478-10-10-10h-38.491c-5.522 0-10 4.478-10 10v4.405h-64.479c-8.77 0-15.904-7.134-15.904-15.902v-52.963h66.589c5.522 0 10-4.478 10-10v-32.05zm42.285 116.51v26.197h-18.491v-26.197h18.491zm-178.969-74.462l-11.411 17.661-15.53-17.661h26.941zm-67.811 0l-15.53 17.661-11.411-17.661h26.941zM31.361 443.386v-99.688c0-10.241 8.332-18.572 18.572-18.572h32.791l25.599 39.623a10.001 10.001 0 0 0 7.662 4.546 9.976 9.976 0 0 0 8.248-3.369l29.679-33.753 29.679 33.753a10.001 10.001 0 0 0 15.91-1.177l25.599-39.623h16.283v52.965c0 10.512 4.542 19.984 11.766 26.556v38.739H31.361zm437.512 34.066c0 8.022-6.527 14.548-14.551 14.548H287.698c-8.023 0-14.551-6.526-14.551-14.548v-63.696c1.358.157 2.739.237 4.139.237h64.479v21.792c0 5.522 4.478 10 10 10h38.491c5.522 0 10-4.478 10-10v-21.792h64.478c1.399 0 2.781-.081 4.139-.237v63.696z"/></svg>