<svg xmlns="http://www.w3.org/2000/svg" fill="#006aff" viewBox="0 0 512 512"><path d="M502 108.334c5.522-.001 10-4.478 10-10.001V42c0-23.159-18.841-42-42-42-1.826 0-3.621.13-5.386.357A9.972 9.972 0 0 0 462 0H106C82.841 0 64 18.841 64 42v104.342c-23.61 2.732-42.003 22.837-42.003 47.167V436H10c-5.522 0-10 4.477-10 10v18.253C0 490.581 21.419 512 47.746 512h416.508C490.581 512 512 490.581 512 464.253V446c0-5.523-4.478-10-10-10h-12.003V193.509c0-24.328-18.39-44.431-41.997-47.166v-38.009h54zM448 42c0-12.131 9.869-22 22-22s22 9.869 22 22v46.333h-44V42zM84 42c0-12.131 9.869-22 22-22h328.242A41.74 41.74 0 0 0 428 42v394h-78V278.461l36-36v118.79c0 5.523 4.478 10 10 10s10-4.477 10-10V218.318a10.002 10.002 0 0 0-17.071-7.072L282.045 318.132l-46.429-46.429a10 10 0 0 0-12.882-1.068l-112.045 79.991a10 10 0 0 0-4.189 8.139V436H84V42zm209.95 292.511l36.05-36.05V436h-36V335.5c0-.334-.018-.663-.05-.989zM274 338.372V436h-36V302.371l36 36.001zm-56-39.783V436h-36V324.29l36-25.701zm-56 39.98V436h-35.5v-72.087l35.5-25.344zM41.997 193.509c0-13.281 9.465-24.391 22.003-26.943V436H41.997V193.509zM492 456v8.253c0 15.3-12.447 27.747-27.746 27.747H47.746C32.447 492 20 479.553 20 464.253V456h472zm-22.003-262.491V436H448V166.567c12.535 2.554 21.997 13.664 21.997 26.942z"/><path d="M403.069 394.6c-1.859-1.87-4.439-2.93-7.069-2.93s-5.21 1.06-7.07 2.93c-1.86 1.86-2.93 4.44-2.93 7.07s1.069 5.21 2.93 7.07c1.861 1.86 4.44 2.93 7.07 2.93s5.21-1.07 7.069-2.93a10.077 10.077 0 0 0 2.931-7.07c0-2.64-1.07-5.21-2.931-7.07zm-6.087-276.155h-41.191c-5.522 0-10 4.477-10 10s4.478 10 10 10h17.049l-95.466 95.466-43.613-43.613a10.003 10.003 0 0 0-12.894-1.059l-77.593 55.567c-4.49 3.216-5.523 9.462-2.308 13.953a9.988 9.988 0 0 0 8.139 4.179c2.015 0 4.05-.608 5.813-1.871l70.697-50.629 44.687 44.687c3.906 3.905 10.236 3.904 14.143 0l102.537-102.537v17.049c0 5.523 4.478 10 10 10s10-4.477 10-10v-41.192c0-5.523-4.478-10-10-10zM120.84 271.16c-1.86-1.86-4.44-2.92-7.07-2.92s-5.21 1.06-7.069 2.92a10.077 10.077 0 0 0-2.931 7.07c0 2.64 1.07 5.21 2.931 7.08 1.859 1.86 4.439 2.93 7.069 2.93s5.21-1.07 7.07-2.93a10.1 10.1 0 0 0 2.93-7.08c0-2.63-1.069-5.21-2.93-7.07zm57.796-165.605c-7.486 0-13.577-5.113-13.577-11.398 0-6.285 6.091-11.398 13.577-11.398 7.487 0 13.578 5.113 13.578 11.398 0 5.523 4.478 10 10 10s10-4.477 10-10c0-14.058-9.932-25.987-23.578-29.976v-.323c0-5.523-4.478-10-10-10s-10 4.477-10 10v.323c-13.646 3.989-23.577 15.918-23.577 29.976 0 17.313 15.063 31.398 33.577 31.398 7.487 0 13.578 5.113 13.578 11.398 0 6.285-6.091 11.399-13.578 11.399-7.486 0-13.577-5.113-13.577-11.398 0-5.523-4.478-10-10-10s-10 4.477-10 10c0 14.058 9.931 25.987 23.577 29.976v.07c0 5.523 4.478 10 10 10s10-4.477 10-10v-.071c13.646-3.989 23.578-15.918 23.578-29.976 0-17.313-15.063-31.398-33.578-31.398zM278.333 464h-44.166c-5.522 0-10 4.477-10 10s4.478 10 10 10h44.166c5.522 0 10-4.477 10-10s-4.478-10-10-10z"/></svg>