<svg height="640" viewBox="-8 0 480 480" fill="#006aff" width="640" xmlns="http://www.w3.org/2000/svg"><path d="M83.207 69.633l88-66 9.602 12.8-88 66zM216 232h112a8 8 0 0 0 8-8v-56a8 8 0 0 0-8-8H216a8 8 0 0 0-8 8v56a8 8 0 0 0 8 8zm104-16h-40v-40h40zm-96-40h40v40h-40zm0-128h16v16h-16zm-24 40h16v16h-16zm-48 0h16v16h-16zm104-8h16v16h-16zm40 8h16v16h-16zm0 0"/><path d="M48 449.113V480h16v-32.29a48.262 48.262 0 0 0 16-7.823V480h16v-48.61a34.219 34.219 0 0 1 7.055-.671 31.21 31.21 0 0 1 21.097 7.777c17.75 14.379 43.137 14.379 60.887 0 12.156-10.371 30.047-10.371 42.2 0 17.75 14.379 43.14 14.379 60.89 0 1.992-1.441 3.855-2.762 5.816-3.902l19.657 26.207 12.796-9.602-15.3-20.398a31.57 31.57 0 0 1 19.199 7.695 46.983 46.983 0 0 0 30.504 10.785 52.861 52.861 0 0 0 7.199-.527V480h16v-36.703a87.117 87.117 0 0 0 7.266-4.8A48.565 48.565 0 0 1 400 433.09V480h16v-49.129c6.48.7 12.594 3.36 17.52 7.625A47.013 47.013 0 0 0 464 449.281v-16a31.278 31.278 0 0 1-21.137-7.777A47.516 47.516 0 0 0 416 414.894V304h16a8 8 0 0 0 8-8v-32a8 8 0 0 0-8-8h-56V136h16a8 8 0 0 0 4.8-14.398l-160-120a7.992 7.992 0 0 0-9.6 0l-160 120A7.998 7.998 0 0 0 72 136h16v120H32a8 8 0 0 0-8 8v32a8 8 0 0 0 8 8h16v129.129a31.883 31.883 0 0 1-17.602-7.625A46.901 46.901 0 0 0 0 414.719v16a31.135 31.135 0 0 1 21.078 7.777A47.498 47.498 0 0 0 48 449.113zm230.777-23.61c-12.152 10.368-30.035 10.368-42.183 0-17.758-14.378-43.153-14.378-60.907 0-12.148 10.368-30.03 10.368-42.183 0a46.972 46.972 0 0 0-30.45-10.784c-2.359 0-4.714.16-7.054.48V304h24v88a8 8 0 0 0 8 8h140l16.297 21.727c-2.008 1.257-3.817 2.554-5.52 3.777zM136 368h128v16H136zm0-16v-16h72v16zm72-32h-72v-16h72zm152.8 113.281a31.205 31.205 0 0 1-21.113-7.777 46.964 46.964 0 0 0-30.464-10.785 50.795 50.795 0 0 0-9.512.883L280 389.336V360a8 8 0 0 0-8-8h-48v-48h144v128.574a34.802 34.802 0 0 1-7.2.707zm39.2-17.015A47.825 47.825 0 0 0 384 424V304h16zM232 18l136 102H96zM104 136h256v120H192v-88a8 8 0 0 0-8-8h-48a8 8 0 0 0-8 8v88h-24zm72 120h-32v-80h32zM40 272h384v16H40zm40 32v116.625a86.727 86.727 0 0 0-7.383 4.879 49.92 49.92 0 0 1-8.617 5.36V304zm0 0"/></svg>