<svg xmlns="http://www.w3.org/2000/svg" viewBox="0 0 512.007 512.007" fill="#006aff"><path d="M138.528 23.381c-2.56-3.608-7.552-4.448-11.16-1.896l-124 88c-3.6 2.552-4.44 7.552-1.888 11.152a7.978 7.978 0 0 0 6.528 3.368c1.6 0 3.216-.48 4.632-1.472l124-88c3.6-2.552 4.44-7.552 1.888-11.152z"/><path d="M260.64 109.477l-124-88c-3.616-2.552-8.6-1.712-11.16 1.896-2.56 3.6-1.712 8.6 1.888 11.152l124 88a7.96 7.96 0 0 0 4.624 1.48 7.979 7.979 0 0 0 6.536-3.376c2.56-3.6 1.712-8.6-1.888-11.152zM138.528 55.381c-2.56-3.608-7.552-4.448-11.16-1.896l-124 88c-3.6 2.552-4.44 7.552-1.888 11.152a7.978 7.978 0 0 0 6.528 3.368c1.6 0 3.216-.48 4.632-1.472l124-88c3.6-2.552 4.44-7.552 1.888-11.152z"/><path d="M260.64 141.477l-124-88c-3.616-2.552-8.6-1.712-11.16 1.896-2.56 3.6-1.712 8.6 1.888 11.152l124 88a7.96 7.96 0 0 0 4.624 1.48 7.979 7.979 0 0 0 6.536-3.376c2.56-3.6 1.712-8.6-1.888-11.152zM8 108.005c-4.424 0-8 3.584-8 8v32c0 4.416 3.576 8 8 8s8-3.584 8-8v-32c0-4.416-3.576-8-8-8z"/><path d="M256 108.005c-4.424 0-8 3.584-8 8v32c0 4.416 3.576 8 8 8s8-3.584 8-8v-32c0-4.416-3.576-8-8-8z"/><path d="M386.528 23.381a8.009 8.009 0 0 0-11.16-1.896l-124 88c-3.6 2.552-4.44 7.552-1.888 11.152a7.978 7.978 0 0 0 6.528 3.368c1.6 0 3.216-.48 4.632-1.472l124-88c3.6-2.552 4.44-7.552 1.888-11.152z"/><path d="M508.64 109.477l-124-88c-3.616-2.552-8.6-1.712-11.16 1.896-2.56 3.6-1.712 8.6 1.888 11.152l124 88a7.96 7.96 0 0 0 4.624 1.48 7.979 7.979 0 0 0 6.536-3.376c2.56-3.6 1.712-8.6-1.888-11.152zM386.528 55.381a8.009 8.009 0 0 0-11.16-1.896l-124 88c-3.6 2.552-4.44 7.552-1.888 11.152a7.978 7.978 0 0 0 6.528 3.368c1.6 0 3.216-.48 4.632-1.472l124-88c3.6-2.552 4.44-7.552 1.888-11.152z"/><path d="M508.64 141.477l-124-88c-3.616-2.552-8.6-1.712-11.16 1.896-2.56 3.6-1.712 8.6 1.888 11.152l124 88a7.96 7.96 0 0 0 4.624 1.48 7.979 7.979 0 0 0 6.536-3.376c2.56-3.6 1.712-8.6-1.888-11.152zM256 108.005c-4.424 0-8 3.584-8 8v368c0 4.424 3.576 8 8 8s8-3.576 8-8v-368c0-4.416-3.576-8-8-8z"/><path d="M504 108.005c-4.424 0-8 3.584-8 8v32c0 4.416 3.576 8 8 8s8-3.584 8-8v-32c0-4.416-3.576-8-8-8z"/><path d="M504 140.005c-4.424 0-8 3.584-8 8v336c0 4.424 3.576 8 8 8s8-3.576 8-8v-336c0-4.416-3.576-8-8-8zm-496 0c-4.424 0-8 3.584-8 8v336c0 4.424 3.576 8 8 8s8-3.576 8-8v-336c0-4.416-3.576-8-8-8zm304 216H200c-4.424 0-8 3.576-8 8v120c0 4.424 3.576 8 8 8h112c4.424 0 8-3.576 8-8v-120c0-4.424-3.576-8-8-8zm-8 120h-96v-104h96v104z"/><path d="M280.24 412.005h-.088c-4.416 0-7.952 3.576-7.952 8s3.616 8 8.04 8c4.416 0 8-3.576 8-8s-3.584-8-8-8zm-48 0h-.088c-4.416 0-7.952 3.576-7.952 8s3.616 8 8.04 8c4.416 0 8-3.576 8-8s-3.584-8-8-8zm271.76-120H8c-4.424 0-8 3.576-8 8s3.576 8 8 8h496c4.424 0 8-3.576 8-8s-3.576-8-8-8zm-372-176c-33.088 0-60 26.912-60 60 0 4.416 3.576 8 8 8s8-3.584 8-8c0-24.264 19.744-44 44-44s44 19.736 44 44c0 4.416 3.576 8 8 8s8-3.584 8-8c0-33.088-26.912-60-60-60z"/><path d="M40 220.005c-4.424 0-8 3.584-8 8v72c0 4.424 3.576 8 8 8s8-3.576 8-8v-72c0-4.416-3.576-8-8-8zm32 0c-4.424 0-8 3.584-8 8v72c0 4.424 3.576 8 8 8s8-3.576 8-8v-72c0-4.416-3.576-8-8-8zm40 0c-4.424 0-8 3.584-8 8v72c0 4.424 3.576 8 8 8s8-3.576 8-8v-72c0-4.416-3.576-8-8-8zm40 0c-4.424 0-8 3.584-8 8v72c0 4.424 3.576 8 8 8s8-3.576 8-8v-72c0-4.416-3.576-8-8-8zm40 0c-4.424 0-8 3.584-8 8v72c0 4.424 3.576 8 8 8s8-3.576 8-8v-72c0-4.416-3.576-8-8-8zm32 0c-4.424 0-8 3.584-8 8v72c0 4.424 3.576 8 8 8s8-3.576 8-8v-72c0-4.416-3.576-8-8-8z"/><path d="M224 220.005H40c-4.424 0-8 3.584-8 8s3.576 8 8 8h184c4.424 0 8-3.584 8-8s-3.576-8-8-8z"/><path d="M80 168.005c-4.424 0-8 3.584-8 8v52c0 4.416 3.576 8 8 8s8-3.584 8-8v-52c0-4.416-3.576-8-8-8zm104 0c-4.424 0-8 3.584-8 8v52c0 4.416 3.576 8 8 8s8-3.584 8-8v-52c0-4.416-3.576-8-8-8z"/><path d="M184 172.005H80c-4.424 0-8 3.584-8 8s3.576 8 8 8h104c4.424 0 8-3.584 8-8s-3.576-8-8-8zm196-56c-33.088 0-60 26.912-60 60 0 4.416 3.576 8 8 8s8-3.584 8-8c0-24.264 19.744-44 44-44s44 19.736 44 44c0 4.416 3.576 8 8 8s8-3.584 8-8c0-33.088-26.912-60-60-60zm-92 104c-4.424 0-8 3.584-8 8v72c0 4.424 3.576 8 8 8s8-3.576 8-8v-72c0-4.416-3.576-8-8-8zm32 0c-4.424 0-8 3.584-8 8v72c0 4.424 3.576 8 8 8s8-3.576 8-8v-72c0-4.416-3.576-8-8-8zm40 0c-4.424 0-8 3.584-8 8v72c0 4.424 3.576 8 8 8s8-3.576 8-8v-72c0-4.416-3.576-8-8-8zm40 0c-4.424 0-8 3.584-8 8v72c0 4.424 3.576 8 8 8s8-3.576 8-8v-72c0-4.416-3.576-8-8-8zm40 0c-4.424 0-8 3.584-8 8v72c0 4.424 3.576 8 8 8s8-3.576 8-8v-72c0-4.416-3.576-8-8-8zm32 0c-4.424 0-8 3.584-8 8v72c0 4.424 3.576 8 8 8s8-3.576 8-8v-72c0-4.416-3.576-8-8-8z"/><path d="M472 220.005H288c-4.424 0-8 3.584-8 8s3.576 8 8 8h184c4.424 0 8-3.584 8-8s-3.576-8-8-8z"/><path d="M328 168.005c-4.424 0-8 3.584-8 8v52c0 4.416 3.576 8 8 8s8-3.584 8-8v-52c0-4.416-3.576-8-8-8zm104 0c-4.424 0-8 3.584-8 8v52c0 4.416 3.576 8 8 8s8-3.584 8-8v-52c0-4.416-3.576-8-8-8z"/><path d="M432 172.005H328c-4.424 0-8 3.584-8 8s3.576 8 8 8h104c4.424 0 8-3.584 8-8s-3.576-8-8-8zm32 160H344c-4.424 0-8 3.576-8 8v80c0 4.424 3.576 8 8 8h120c4.424 0 8-3.576 8-8v-80c0-4.424-3.576-8-8-8zm-8 80H352v-64h104v64z"/><path d="M464 372.005H344c-4.424 0-8 3.576-8 8s3.576 8 8 8h120c4.424 0 8-3.576 8-8s-3.576-8-8-8z"/><path d="M384 332.005c-4.424 0-8 3.576-8 8v80c0 4.424 3.576 8 8 8s8-3.576 8-8v-80c0-4.424-3.576-8-8-8zm40 0c-4.424 0-8 3.576-8 8v80c0 4.424 3.576 8 8 8s8-3.576 8-8v-80c0-4.424-3.576-8-8-8zm-256 0H48c-4.424 0-8 3.576-8 8v80c0 4.424 3.576 8 8 8h120c4.424 0 8-3.576 8-8v-80c0-4.424-3.576-8-8-8zm-8 80H56v-64h104v64z"/><path d="M168 372.005H48c-4.424 0-8 3.576-8 8s3.576 8 8 8h120c4.424 0 8-3.576 8-8s-3.576-8-8-8z"/><path d="M88 332.005c-4.424 0-8 3.576-8 8v80c0 4.424 3.576 8 8 8s8-3.576 8-8v-80c0-4.424-3.576-8-8-8zm40 0c-4.424 0-8 3.576-8 8v80c0 4.424 3.576 8 8 8s8-3.576 8-8v-80c0-4.424-3.576-8-8-8zm376 144H8c-4.424 0-8 3.576-8 8s3.576 8 8 8h496c4.424 0 8-3.576 8-8s-3.576-8-8-8z"/></svg>