<svg height="640" fill="#006aff" viewBox="0 0 480 480.001" width="640" xmlns="http://www.w3.org/2000/svg"><path d="M467.785 206.8A8 8 0 0 0 480 200v-48a8 8 0 0 0-3.785-6.8l-232-144a8.012 8.012 0 0 0-8.43 0L128 68.104V48a8 8 0 0 0-8-8H88a8 8 0 0 0-8 8v49.898L3.785 145.2A8 8 0 0 0 0 152v48a7.999 7.999 0 1 0 12.215 6.8L32 194.52V472a8 8 0 0 0 8 8h400a8 8 0 0 0 8-8v-82.855a47.917 47.917 0 0 0 31.445-37.934 47.92 47.92 0 0 0-18.644-45.61c-.754-.558-1.52-.992-2.281-1.496 10.156-21.152 5.949-46.406-10.52-63.12V194.52zM96 56h16v22.023l-16 9.93zM16 156.457L240 17.418l224 139.031v29.153L244.215 49.199a8.012 8.012 0 0 0-8.43 0L16 185.602zM96 464V256h96v208zm256 0V352h16v112zm80 0h-48v-72h48zm32-120c-.027 15.238-10.77 28.355-25.703 31.387-2.07.425-4.184.633-6.297.613h-48v-32a8 8 0 0 0-8-8h-32a8 8 0 0 0-8 8v32h-56c-13.254 0-24-10.742-24-24a23.66 23.66 0 0 1 3.41-12.07A39.996 39.996 0 0 0 288 352c.988.02 1.973-.082 2.938-.305a7.998 7.998 0 0 0 5.988-9.285 8.003 8.003 0 0 0-9.004-6.41C274.695 335.957 264 325.227 264 312c0-1.129.078-2.258.234-3.375a23.767 23.767 0 0 1 13.133-18.078 21.998 21.998 0 0 1 5.352-1.938h.074a24.003 24.003 0 0 1 16.719 2.399 8.006 8.006 0 0 0 10.902-3.051c2.164-3.852.8-8.734-3.055-10.898a39.951 39.951 0 0 0-18.8-4.914c-.192 0-.36-.114-.559-.114-.75 0-1.473.188-2.215.227-1.36.07-2.703.207-4 .406-.562.09-1.137.059-1.687.168 0-.27-.059-.527-.059-.8.031-15.243 10.781-28.36 25.723-31.384 2.05-.437 4.14-.656 6.238-.648a31.71 31.71 0 0 1 18.937 6.21 8.005 8.005 0 0 0 11.188-1.702 8 8 0 0 0-1.7-11.188 47.559 47.559 0 0 0-27.519-9.246h-.097c.046-.226.144-.433.191-.648a40.267 40.267 0 0 1 2-6.403c.32-.796.754-1.488 1.113-2.238a39.378 39.378 0 0 1 2.297-4.222c.512-.801 1.094-1.54 1.664-2.29a40.08 40.08 0 0 1 2.824-3.425 43.125 43.125 0 0 1 2.094-2.047 40.212 40.212 0 0 1 3.367-2.778 69.934 69.934 0 0 1 2.403-1.68 41.75 41.75 0 0 1 3.941-2.144c.848-.406 1.68-.847 2.57-1.199a41.022 41.022 0 0 1 4.75-1.48c.801-.2 1.555-.477 2.403-.637A38.867 38.867 0 0 1 360 192.8c.848.168 1.602.527 2.402.754 1.715.418 3.403.953 5.047 1.597.88.375 1.649.922 2.488 1.344a41.894 41.894 0 0 1 4.297 2.336c.797.563 1.536 1.29 2.325 1.906 1.25.918 2.449 1.91 3.586 2.965.761.754 1.351 1.649 2.046 2.457a39.874 39.874 0 0 1 2.84 3.442c.633.925 1.074 1.976 1.602 2.96a36.177 36.177 0 0 1 2.07 3.805c.457 1.067.707 2.235 1.067 3.356.503 1.347.93 2.722 1.277 4.117.25 1.16.258 2.402.394 3.594.239 1.472.387 2.957.446 4.449a8.09 8.09 0 0 0-.063.87 38.626 38.626 0 0 1-6.191 20.727 8.03 8.03 0 0 0 2.492 11.079c3.746 2.367 8.707 1.254 11.074-2.493a55.284 55.284 0 0 0 8.113-22.007c.231 0 .434-.059.665-.059a40 40 0 0 1 33.91 18.816 40.008 40.008 0 0 1 2.02 38.73c-.739-.187-1.481-.425-2.212-.554A45.688 45.688 0 0 0 432 296a47.66 47.66 0 0 0-38.45 19.25 8.001 8.001 0 0 0 1.602 11.2 7.997 7.997 0 0 0 11.2-1.602A31.768 31.768 0 0 1 432 312a30.36 30.36 0 0 1 6.57.672 24.397 24.397 0 0 1 6.016 1.969 28.646 28.646 0 0 1 6.598 3.754A32.21 32.21 0 0 1 464 344zm-32-159.39v44.8c-.344-.168-.71-.281-1.055-.441-1.304-.582-2.625-1.137-4-1.602-.687-.254-1.386-.469-2.09-.695a50.58 50.58 0 0 0-3.328-.942 52.502 52.502 0 0 0-2.55-.601c-.993-.2-2-.344-3-.488s-1.84-.297-2.77-.383A53.36 53.36 0 0 0 408 224h-.567c-.09-.605-.242-1.2-.343-1.809a45.298 45.298 0 0 0-.442-2.277 36.641 36.641 0 0 0-.8-2.992c-.2-.711-.383-1.434-.606-2.129-.336-1.031-.73-2.04-1.12-3.047-.25-.617-.458-1.25-.72-1.855a56.781 56.781 0 0 0-1.64-3.395c-.219-.43-.41-.871-.633-1.285-.8-1.524-1.738-3-2.695-4.426-.192-.297-.426-.558-.625-.847-.801-1.13-1.602-2.235-2.465-3.297-.383-.473-.801-.91-1.207-1.368a60.832 60.832 0 0 0-2.239-2.472c-.48-.48-.984-.938-1.48-1.406a51.328 51.328 0 0 0-2.313-2.098c-.546-.465-1.105-.895-1.664-1.336-.8-.625-1.601-1.23-2.402-1.816-.605-.422-1.215-.801-1.84-1.223a43.579 43.579 0 0 0-2.543-1.555 59.489 59.489 0 0 0-1.968-1.062 55.633 55.633 0 0 0-2.704-1.313 66.972 66.972 0 0 0-2.039-.887 53.391 53.391 0 0 0-2.898-1.054c-.688-.242-1.367-.488-2.07-.7a60.99 60.99 0 0 0-3.13-.796c-.679-.16-1.35-.336-2.038-.473-1.176-.234-2.399-.394-3.567-.555-.594-.07-1.168-.183-1.77-.238-1.792-.184-3.624-.289-5.472-.289s-3.727.105-5.598.281c-.609.063-1.203.184-1.8.266-1.211.156-2.403.308-3.602.55-.703.137-1.383.337-2.07.497-1.067.254-2.121.504-3.2.8-.714.215-1.41.481-2.113.727-.976.336-1.953.672-2.906 1.063-.711.296-1.398.625-2.094.945-.906.418-1.808.8-2.687 1.297-.696.367-1.36.758-2.032 1.152-.851.496-1.691.992-2.507 1.52a61.89 61.89 0 0 0-1.926 1.336c-.8.566-1.602 1.136-2.313 1.734a55.88 55.88 0 0 0-1.808 1.504 84.07 84.07 0 0 0-2.137 1.945 60.764 60.764 0 0 0-1.664 1.664 61.023 61.023 0 0 0-3.445 3.945 49.02 49.02 0 0 0-1.723 2.301c-.46.641-.918 1.29-1.352 1.946-.527.8-1.015 1.601-1.496 2.472-.398.68-.797 1.368-1.175 2.07a63.59 63.59 0 0 0-1.262 2.618c-.336.719-.68 1.441-.985 2.176-.367.906-.687 1.84-1.007 2.77-.266.75-.555 1.495-.801 2.26-.297.962-.52 1.954-.762 2.938-.183.801-.398 1.512-.55 2.29-.208 1.046-.344 2.117-.489 3.199-.105.742-.246 1.472-.32 2.222v.145c-.336.12-.64.304-.977.426-1.031.39-2.008.863-3 1.32-1.406.629-2.789 1.285-4.117 2.047-.96.558-1.875 1.168-2.793 1.793-1.25.797-2.457 1.703-3.617 2.644a50.797 50.797 0 0 0-2.48 2.196 48.762 48.762 0 0 0-3.094 3.199c-.73.8-1.442 1.597-2.114 2.512-.918 1.199-1.75 2.457-2.558 3.734-.57.906-1.153 1.8-1.664 2.746a45.746 45.746 0 0 0-1.985 4.285c-.402.945-.8 1.86-1.168 2.824a46.524 46.524 0 0 0-1.367 5.075c-.195.855-.465 1.68-.617 2.543a46.446 46.446 0 0 0-.129 15.351v.25a38.446 38.446 0 0 0-3.465 2.809c-.11.093-.222.183-.328.285a38.949 38.949 0 0 0-3.422 3.578c-.367.438-.687.902-1.031 1.352-.7.902-1.379 1.816-1.992 2.765-.352.555-.672 1.121-1 1.692a41.707 41.707 0 0 0-1.48 2.804 29.73 29.73 0 0 0-.801 1.852 38.35 38.35 0 0 0-1.09 3.015c-.2.622-.407 1.239-.575 1.872-.304 1.136-.527 2.289-.726 3.449-.098.55-.227 1.094-.297 1.652a36.642 36.642 0 0 0 .145 11.297c.086.578.214 1.145.328 1.715.3 1.52.691 3.023 1.168 4.504.11.336.152.687.261 1.023-.152.168-.254.367-.406.535a40.084 40.084 0 0 0-3.937 5.23c-.055.09-.094.177-.145.266a38.776 38.776 0 0 0-2.789 5.602c-.152.367-.312.727-.45 1.094a38.75 38.75 0 0 0-1.718 6.09c-.09.414-.144.796-.219 1.246A40.903 40.903 0 0 0 240 352c.027 22.082 17.922 39.977 40 40h56v72H208V248a8 8 0 0 0-8-8H88a8 8 0 0 0-8 8v216H48V184.61l192-119.2zm0 0"/><path d="M240 200c26.512 0 48-21.488 48-48 0-26.508-21.488-48-48-48-26.508 0-48 21.492-48 48 .027 26.5 21.5 47.977 48 48zm-30.863-40H232v22.863A31.991 31.991 0 0 1 209.137 160zM248 182.863V160h22.863A31.991 31.991 0 0 1 248 182.863zM270.863 144H248v-22.863A31.991 31.991 0 0 1 270.863 144zM232 121.137V144h-22.863A31.991 31.991 0 0 1 232 121.137zm0 0"/></svg>