<svg xmlns="http://www.w3.org/2000/svg" viewBox="0 0 682.72 387.42"><defs><style>.cls-1{fill:#fff}</style></defs><g id="Layer_2" data-name="Layer 2"><g id="Layer_1-2" data-name="Layer 1"><path class="cls-1" d="M32.57 334a16 16 0 0 0-.82 2.22 22.45 22.45 0 0 0-.59 2.6 10.49 10.49 0 0 0-.32-2.09 13.64 13.64 0 0 0-.83-2.27l-6-13.05h-.46l-5.91 13.05a17.68 17.68 0 0 0-.94 2.45 7.82 7.82 0 0 0-.31 1.91q-.23-1.55-.55-2.84a12.53 12.53 0 0 0-.65-2l-5.44-11.71H3.86l12.52 25.62 5.74-12.77q.25-.59.69-1.77t1-2.84q.33 1.1.74 2.23t1 2.59l5.58 12.57 12.57-25.62h-5.8zm25.54-12.57a12.19 12.19 0 0 0-9.11 3.65 12.85 12.85 0 0 0-3.56 9.34 13 13 0 0 0 3.44 9.46 12.31 12.31 0 0 0 9.25 3.54 13.59 13.59 0 0 0 7.06-1.78 14.12 14.12 0 0 0 5-5.43l-4.67-2.6a9.25 9.25 0 0 1-3.11 3.62 8.24 8.24 0 0 1-4.41 1.13 6.34 6.34 0 0 1-4.82-1.9 8.1 8.1 0 0 1-2-5.29h19.3v-1q0-6-3.26-9.36t-9.11-3.38zm-6.6 10a7.11 7.11 0 0 1 2.32-4 6.81 6.81 0 0 1 4.39-1.33 6.94 6.94 0 0 1 4.54 1.36 5.86 5.86 0 0 1 2 4zm35.16 1.11q-.74-.31-2.09-.79-4.28-1.56-4.28-3.44a2.42 2.42 0 0 1 1-2 4 4 0 0 1 2.54-.75 4.65 4.65 0 0 1 2.51.68 3.61 3.61 0 0 1 1.52 1.82l3.93-2.7a6.36 6.36 0 0 0-2.92-2.94 10.37 10.37 0 0 0-4.81-1 10.49 10.49 0 0 0-6.72 2 6.39 6.39 0 0 0-2.54 5.25 5.7 5.7 0 0 0 1.54 4 15.8 15.8 0 0 0 5.42 3.26q.69.31 2 .76 3.77 1.4 3.77 3.37a2.84 2.84 0 0 1-1.06 2.33 4.52 4.52 0 0 1-2.92.85 6.14 6.14 0 0 1-3.54-.94 4.77 4.77 0 0 1-1.89-2.75l-4.59 2.5a9 9 0 0 0 3.67 4.05 11.84 11.84 0 0 0 5.79 1.33 11.48 11.48 0 0 0 7.24-2.05 6.8 6.8 0 0 0 2.63-5.67 6.16 6.16 0 0 0-1.44-4.17 12.22 12.22 0 0 0-4.76-3zm18.64-19.42h-5.54v9.15h-4.23v4.84h4.23v19.33h5.54v-19.33h4.23v-4.84h-4.23v-9.15zm19.91 8.31a12.19 12.19 0 0 0-9.14 3.66 12.85 12.85 0 0 0-3.56 9.34 13 13 0 0 0 3.44 9.46 12.31 12.31 0 0 0 9.25 3.54 13.59 13.59 0 0 0 7.06-1.78 14.12 14.12 0 0 0 5-5.43l-4.67-2.6a9.25 9.25 0 0 1-3.11 3.62 8.24 8.24 0 0 1-4.46 1.12 6.34 6.34 0 0 1-4.82-1.9 8.1 8.1 0 0 1-2-5.29h19.33v-1q0-6-3.26-9.36t-9.06-3.38zm-6.6 10a7.12 7.12 0 0 1 2.32-4 6.81 6.81 0 0 1 4.39-1.33 6.94 6.94 0 0 1 4.54 1.36 5.86 5.86 0 0 1 2 4zm36.25-10a5.71 5.71 0 0 0-3.63 1.15 7.84 7.84 0 0 0-2.36 3.54v-3.9h-5.53v24.22h5.53v-10.61q0-5.2 1.2-7.41a4.15 4.15 0 0 1 4-2.21 6.58 6.58 0 0 1 1.85.24 5.11 5.11 0 0 1 1.54.75l2-4.69a11.23 11.23 0 0 0-2.23-.82 9.59 9.59 0 0 0-2.37-.26zm29.83 3.39a6.68 6.68 0 0 0-3-2.54 11.18 11.18 0 0 0-4.6-.85 11.87 11.87 0 0 0-5.46 1.15 10.42 10.42 0 0 0-3.9 3.65v-4h-5.2v24.17h5.53v-11a27.6 27.6 0 0 1 .24-4.35 5.5 5.5 0 0 1 .85-2.23 5.72 5.72 0 0 1 2.38-2 8 8 0 0 1 3.45-.71q3 0 4.12 1.57t1.16 6.34v12.42h5.58v-14.66a25.88 25.88 0 0 0-.28-4.64 6.92 6.92 0 0 0-.87-2.32zm31.15-11.7h-5.53v9.15h-4.23v4.84h4.23v19.33h5.53v-19.33h4.24v-4.84h-4.24v-9.15zm20.53 8.31a5.71 5.71 0 0 0-3.63 1.15 7.84 7.84 0 0 0-2.36 3.54v-3.9h-5.53v24.22h5.53v-10.61q0-5.2 1.2-7.41a4.15 4.15 0 0 1 4-2.21 6.58 6.58 0 0 1 1.85.24 5.11 5.11 0 0 1 1.54.75l2-4.69a11.22 11.22 0 0 0-2.23-.82 9.59 9.59 0 0 0-2.37-.26zm24.91 4.79a7.25 7.25 0 0 0-3.07-3.56A10.63 10.63 0 0 0 245.3 325a14 14 0 0 0-3 9.34q0 6.09 2.94 9.6a10 10 0 0 0 8.07 3.51 9.18 9.18 0 0 0 8-4.13v3.14h5.53v-24.19h-5.53zm-1.72 14a6.55 6.55 0 0 1-9.75.18 10.94 10.94 0 0 1 .06-11.92 6.08 6.08 0 0 1 4.93-2.15 6 6 0 0 1 4.88 2.09 8.85 8.85 0 0 1 1.75 5.84 9.07 9.07 0 0 1-1.87 5.98zm32.11-14a7.25 7.25 0 0 0-3.07-3.56 10.63 10.63 0 0 0-12.92 2.34 14 14 0 0 0-3 9.34q0 6.09 2.94 9.6a10 10 0 0 0 8.07 3.51 9.18 9.18 0 0 0 8-4.13v3.14h5.53v-39.54h-5.53zm-1.71 14a6.57 6.57 0 0 1-9.76.17 10.94 10.94 0 0 1 .06-11.92 6.08 6.08 0 0 1 4.93-2.15 6 6 0 0 1 4.88 2.09 8.85 8.85 0 0 1 1.75 5.84 9.1 9.1 0 0 1-1.83 6zm25.8-18.79a12.19 12.19 0 0 0-9.14 3.66 12.85 12.85 0 0 0-3.56 9.34 13 13 0 0 0 3.44 9.46 12.31 12.31 0 0 0 9.25 3.54 13.59 13.59 0 0 0 7.06-1.78 14.12 14.12 0 0 0 5-5.43l-4.67-2.6a9.25 9.25 0 0 1-3.11 3.62 8.24 8.24 0 0 1-4.46 1.12 6.34 6.34 0 0 1-4.82-1.9 8.1 8.1 0 0 1-2-5.29h19.33v-1q0-6-3.26-9.36t-9.06-3.38zm-6.6 10a7.12 7.12 0 0 1 2.32-4 6.81 6.81 0 0 1 4.39-1.33 6.94 6.94 0 0 1 4.54 1.36 5.86 5.86 0 0 1 2 4zm57.69-5.21a7.25 7.25 0 0 0-3.07-3.56 10.63 10.63 0 0 0-12.91 2.34 14 14 0 0 0-3 9.34q0 6.09 2.94 9.6a10 10 0 0 0 8.07 3.51 9.18 9.18 0 0 0 8-4.13l-.05 3.21q0 3.65-1.58 5.2t-5.1 1.56a7.11 7.11 0 0 1-3.72-.82 2.92 2.92 0 0 1-1.45-2.37h-5.94a6.66 6.66 0 0 0 3 5.6 13.59 13.59 0 0 0 8 2.1q6.71 0 9.54-2.89t2.83-10v-22.64h-5.53zm-1.72 14a6.55 6.55 0 0 1-9.75.18 10.94 10.94 0 0 1 .06-11.92 6.08 6.08 0 0 1 4.93-2.15 6 6 0 0 1 4.88 2.09 8.85 8.85 0 0 1 1.75 5.84 9.07 9.07 0 0 1-1.87 5.98zm26.43-18.79a5.71 5.71 0 0 0-3.63 1.15 7.84 7.84 0 0 0-2.36 3.54v-3.9H380v24.22h5.53v-10.61q0-5.2 1.2-7.41a4.15 4.15 0 0 1 4-2.21 6.58 6.58 0 0 1 1.85.24 5.11 5.11 0 0 1 1.54.75l2-4.69a11.23 11.23 0 0 0-2.23-.82 9.59 9.59 0 0 0-2.32-.26zm28.63 3.82a13 13 0 0 0-4.32-2.86 13.93 13.93 0 0 0-10.21 0 13 13 0 0 0-4.28 2.78 12.84 12.84 0 0 0-2.89 4.19 13 13 0 0 0 0 10 13.43 13.43 0 0 0 7.22 7.08 13.6 13.6 0 0 0 10.15 0 13.82 13.82 0 0 0 4.41-2.89 12.29 12.29 0 0 0 2.87-4.16 12.88 12.88 0 0 0 1-5 12.48 12.48 0 0 0-1-4.92 12.82 12.82 0 0 0-2.95-4.22zm-4.12 14.88a7.17 7.17 0 0 1-10.58 0 8.54 8.54 0 0 1 0-11.4 7.18 7.18 0 0 1 10.59 0 8.56 8.56 0 0 1 0 11.4zm31.58-4.25q0 3.52-1.45 5t-4.72 1.53q-3.26 0-4.72-1.53t-1.45-5v-13.61h-5.53v12q0 7 2.78 10.1t9 3.11q6.09 0 8.87-3.14t2.78-10.07v-12h-5.53zm26.72-14.45a9.88 9.88 0 0 0-5.09 1.25 7.29 7.29 0 0 0-3.1 3.54v-4h-5.53v35.54h5.53V343.3a9.18 9.18 0 0 0 8 4.13 10 10 0 0 0 8.07-3.51q2.94-3.51 2.94-9.6a14 14 0 0 0-3-9.34 9.73 9.73 0 0 0-7.82-3.55zm3.3 19a5.94 5.94 0 0 1-4.86 2.09 6.11 6.11 0 0 1-4.93-2.24 9 9 0 0 1-1.87-6 8.8 8.8 0 0 1 1.76-5.84 6.75 6.75 0 0 1 9.83.06 11 11 0 0 1 .08 11.92zM461.25 84.48h-34.07V6.47h-44.54v78.01h-34.07v41.29h34.07V290.5h44.54V125.77h34.07V84.48zm176.93 0v33.68q-7.8-19.77-24.73-30.32T572.7 77.31q-39 0-63.22 30.32t-24.22 79.65q0 51.94 23.71 81.82t65 29.88q20.52 0 36.43-8.69t27.81-26.51l-.41 27.38q-.21 31.07-12.73 44.33T584 348.74q-19.3 0-30-7t-11.7-20.21l-47.82.22q.41 29.77 24.43 47.7t64.24 17.93q54 0 76.77-24.67t22.78-85.08V84.48zm-13.85 153.21Q609.24 257 585.23 257q-25.45 0-39.41-17.82t-14-50.63q0-32.6 14.47-51t39.71-18.3q25.25 0 39.31 17.82t14.06 49.76q.04 31.52-15.04 50.86zm-272.46 33.87l-54.71-89.94-45.36 114.21-73.3-173.68-68.1 173.68-48.24-122-59.77 97.73a16.25 16.25 0 0 0 13.89 24.69H338a16.25 16.25 0 0 0 13.87-24.69z"/><path class="cls-1" d="M178.4 33.18l70.73 171.48 22.95-64.28L191.44 7.81a16.25 16.25 0 0 0-27.78 0L87.31 132.68l27.31 72.12zM660.5 6.64a22.4 22.4 0 0 1 8.64 1.68 21.44 21.44 0 0 1 7.23 4.94 21.51 21.51 0 0 1 4.7 7.08 22.1 22.1 0 0 1 1.62 8.43 22.23 22.23 0 0 1-1.66 8.6 21 21 0 0 1-4.84 7.1 23.06 23.06 0 0 1-7.28 4.82A21.76 21.76 0 0 1 660.5 51a21.46 21.46 0 0 1-8.5-1.75 23 23 0 0 1-12-12.12 21.93 21.93 0 0 1 .08-16.86 22.75 22.75 0 0 1 5-7.34 21.09 21.09 0 0 1 7-4.7 22.19 22.19 0 0 1 8.42-1.59zm0 3.32a18.72 18.72 0 0 0-7.17 1.36 18.13 18.13 0 0 0-6 4 20.32 20.32 0 0 0-4.23 6.27 18.19 18.19 0 0 0-1.48 7.2 18.43 18.43 0 0 0 1.4 7.12 18.84 18.84 0 0 0 4.13 6.09 19.17 19.17 0 0 0 6.09 4.18 17.55 17.55 0 0 0 7 1.46 19.48 19.48 0 0 0 7.36-1.41 19.06 19.06 0 0 0 6.25-4.12 18 18 0 0 0 5.53-13 19.85 19.85 0 0 0-1.38-7.39 18.46 18.46 0 0 0-4-6.14 19.45 19.45 0 0 0-6.2-4.18 18.62 18.62 0 0 0-7.27-1.4zm-9.05 6H661q5.18 0 7.85 1.71a5.59 5.59 0 0 1 2.67 5 6.52 6.52 0 0 1-5.52 6.87l5.54 11.26h-6l-4.93-10.39h-3.81V40.8h-5.33zm5.33 3.35v7.81h3.52a8.14 8.14 0 0 0 4.38-.91 3.21 3.21 0 0 0 1.38-2.89 3.41 3.41 0 0 0-1.44-3 8.36 8.36 0 0 0-4.57-1z"/></g></g></svg>